<svg width="22" height="22" viewBox="0 0 22 22" fill="none" xmlns="http://www.w3.org/2000/svg">
<path d="M13.387 1.72501C17.192 1.72501 20.276 4.80901 20.276 8.61401M13.387 5.26501C15.236 5.26501 16.736 6.76401 16.736 8.61401M8.606 13.365C9.506 14.228 10.561 14.93 11.727 15.428L12.246 15.649L13.841 14.029C14.237 13.627 14.81 13.453 15.363 13.569L19.227 14.378C19.881 14.517 20.348 15.094 20.348 15.762V18.544C20.348 19.539 19.542 20.345 18.547 20.345H17.692C13.758 20.345 9.876 19.042 6.94 16.424C6.698 16.209 6.463 15.986 6.234 15.758L6.271 15.795C6.042 15.566 5.82 15.331 5.605 15.089C2.986 12.154 1.683 8.27201 1.683 4.33801V3.48301C1.683 2.48801 2.489 1.68201 3.484 1.68201H6.266C6.934 1.68201 7.511 2.14901 7.65 2.80301L8.46 6.66701C8.575 7.21901 8.402 7.79301 8 8.18901L6.38 9.78401L6.601 10.303C7.099 11.468 7.742 12.465 8.606 13.365Z" stroke="#F24236" stroke-width="1.5" stroke-miterlimit="10" stroke-linecap="round" stroke-linejoin="round"/>
</svg>
