<svg width="18" height="18" viewBox="0 0 18 18" fill="none" xmlns="http://www.w3.org/2000/svg">
<path d="M16.998 8.99995C16.998 13.4171 13.4172 16.998 9 16.998M16.998 8.99995C16.998 4.58278 13.4172 1.00195 9 1.00195M16.998 8.99995H1.002M9 16.998C4.58283 16.998 1.002 13.4171 1.002 8.99995M9 16.998C10.7944 16.998 12.249 13.4171 12.249 8.99995C12.249 4.58278 10.7944 1.00195 9 1.00195M9 16.998C7.20563 16.998 5.751 13.4171 5.751 8.99995C5.751 4.58278 7.20563 1.00195 9 1.00195M1.002 8.99995C1.002 4.58278 4.58283 1.00195 9 1.00195" stroke="#F24236" stroke-width="1.5" stroke-miterlimit="10" stroke-linecap="round" stroke-linejoin="round"/>
</svg>
